<svg id="Capa_1" data-name="Capa 1" xmlns="http://www.w3.org/2000/svg" viewBox="0 0 131.68 49"><path d="M22.82,31.9A9.72,9.72,0,0,1,21.73,31C19,27.8,14.88,27.21,11.12,29.46a8.47,8.47,0,0,0-3.58,10c1.22,3,3.88,4,6.8,4.36a30.91,30.91,0,0,0,3.79,0,11.34,11.34,0,0,1-1.53-1.28,27.87,27.87,0,0,1-3.27-4.38,4.73,4.73,0,0,1,2-6.22,6.81,6.81,0,0,1,1.31-.49,38.4,38.4,0,0,0,.8,5c.77,2.59,2.82,4.16,5.11,5.35.4.2,1.28-.22,1.77-.57a27.16,27.16,0,0,0,7.35-8.64c2.87-5,5.57-10.08,8.49-15,2.44-4.15,5.36-7.91,9.73-10.31,1.58-.87,3.11-.45,4.68-.24.08,0,.25.89.09,1-4.2,3.56-6.41,8.53-9.61,13.37,1.46-.3,2.52-.48,3.56-.75,4.43-1.14,8.75-2.6,12.09-5.89a8.9,8.9,0,0,0,2.21-3.66,3.41,3.41,0,0,0-1.68-3.92A17.24,17.24,0,0,0,56,5C47.94,3.5,40,3.55,32.45,7.47a12,12,0,0,0-3.7,3C27,12.68,28.1,15,30.9,15.2c3.43.27,6.55-.35,8.63-3.45a5.51,5.51,0,0,0,.43-1.3c-.5-.12-1.05-.42-1.48-.3a12.73,12.73,0,0,0-2,1.08c-.23.12-.67.27-.74.19-.18-.23-.38-.65-.29-.87a5.09,5.09,0,0,1,3.52-3,3.64,3.64,0,0,1,3.76,1c.87.9.61,2,.12,3-2.33,4.83-10,7.83-15,6-4.73-1.72-5-6.72-2.07-9.67A22,22,0,0,1,37.21,2.08a53.62,53.62,0,0,1,17.33-.32A22,22,0,0,1,65,5.53c4.22,3,4.54,7.19.68,10.69a34.77,34.77,0,0,1-5.37,4,53.3,53.3,0,0,1-5.5,2.62,60.77,60.77,0,0,1,6.46,5.1c3.06,3.11,2.94,7.45,0,10.71C57,43.54,51.35,46,45,47.06a50.15,50.15,0,0,1-14.88.32,14.37,14.37,0,0,1-3-.38c-2.22-.81-4.3-.06-6.45.21-4.53.57-9.08.55-13-2.08-2.26-1.51-4.17-3.57-4-6.71a18.56,18.56,0,0,0,0-2.79c-.37-3.7,1.47-6.33,4.25-8.29,3.46-2.44,7.22-3.74,11.4-1.62A5.89,5.89,0,0,1,22.82,31.9Zm21.29-8.43C40,30.78,36.37,38.6,29.2,44.15A34.78,34.78,0,0,0,46.12,42a18.31,18.31,0,0,0,8.41-5.89c2.54-3.42,1.69-8.51-1.85-10.32a28.36,28.36,0,0,0-5.56-1.65C46.17,23.92,45.2,23.73,44.11,23.47Z" style="fill:#fff"/><path d="M104,42.14c4.75-3.28,8.88-7.2,10.08-13.38a17.37,17.37,0,0,1,.8-3.4,2.68,2.68,0,0,1,1.58-1.55c.45-.07,1.07.85,1.6,1.35a.53.53,0,0,1,.15.41c-.32,2,.59,2.84,2.52,2.9.15,0,.5.82.38,1-1.85,2.5-.79,5-.19,7.57.38,1.63.51,3.31.77,5.07l2.9-2.26A6.5,6.5,0,0,1,126,38.76a10.82,10.82,0,0,1,2.08-.44c-.09.81.11,1.86-.32,2.38a19.69,19.69,0,0,1-3.65,3.35,15.2,15.2,0,0,1-10.61,3c-2.63-.29-4.79-2.44-4.67-4.56-1.77,1.07-3.55,2.22-5.38,3.26A12,12,0,0,1,95.75,47c-2.25-.32-4.14-1.47-4.57-3.64-3,1-6,2.14-9,2.91a13,13,0,0,1-4.78.07,4.63,4.63,0,0,1-3.66-2.88c-2.13.85-4.17,1.71-6.26,2.45a10.42,10.42,0,0,1-2.73.48c-2.37.17-3.86-1.6-3-3.87a89.08,89.08,0,0,1,4-9.56c2.13-4.22,4.39-8.39,6.9-12.39a91.2,91.2,0,0,1,6.57-8.75c.79-1,2-2.05,3.42-1.26s1.14,2.5.88,3.84a38.17,38.17,0,0,1-4.92,12.15A49.61,49.61,0,0,1,67.39,40.33a8.69,8.69,0,0,0-1.3,1.86l.2.4c.85-.16,1.72-.28,2.56-.51.61-.17,1.16-.51,1.75-.74A5.05,5.05,0,0,0,74,37.77,17.89,17.89,0,0,1,83.54,27a4.33,4.33,0,0,1,4.95.56,4.64,4.64,0,0,1,1.52,5,10.27,10.27,0,0,1-9.58,7.1,12.91,12.91,0,0,1-1.84-.33c-.16,1.81.5,2.8,2.28,3.06a10.93,10.93,0,0,0,10-3.65,21.45,21.45,0,0,0,6.08-12.37,4.62,4.62,0,0,1,.18-.71c.28-1,.61-2.14,1.93-1.95a2,2,0,0,1,1.6,2.44c-.24,1.62.65,2,1.84,2.13s1.4.45.8,1.5c-1.3,2.3-.47,4.63,0,7C103.6,38.53,103.77,40.29,104,42.14Zm8.24-3.25c1.6,1.24,1.68,1.75.38,3.46-.59.77-.9,1.48.16,2,1.89,1,4.6-.7,4.31-2.77-.35-2.6-1-5.15-1.55-7.84Zm-17.61,0c1.51,1.21,1.56,1.84.33,3.58-.72,1-.57,1.7.46,2a3,3,0,0,0,4-3.33C99,38.7,98.48,36.27,98,33.7ZM69,35.15l.44.24C74.55,29.3,78.85,22.73,81.05,15l-.52-.29ZM81,37.2a8.21,8.21,0,0,0,5.26-3.31c.46-.66.23-1.8.31-2.72A7.7,7.7,0,0,0,83.81,31c-2.2.69-3.28,2.66-4.39,4.48C78.63,36.77,78.93,37.2,81,37.2Z" style="fill:#fff"/></svg>